<svg width="20" height="17" viewBox="0 0 20 17" fill="none" xmlns="http://www.w3.org/2000/svg">
<path d="M10.5308 16.4781L17.6434 9.16927C19.3908 7.36461 19.6455 4.414 17.9946 2.52814C17.5806 2.05289 17.0767 1.66938 16.5135 1.40102C15.9504 1.13267 15.34 0.985125 14.7195 0.96739C14.099 0.949656 13.4815 1.06211 12.9047 1.29788C12.328 1.53365 11.8041 1.88778 11.365 2.33865L10.0303 3.71921L8.87996 2.52814C7.12376 0.732505 4.25238 0.47083 2.41715 2.16721C1.95466 2.59264 1.58145 3.11051 1.3203 3.68916C1.05916 4.26782 0.915569 4.89511 0.898311 5.53272C0.881052 6.17032 0.990486 6.80485 1.21993 7.39752C1.44936 7.9902 1.79399 8.52858 2.23275 8.97978L9.52975 16.4781C9.66294 16.6137 9.84281 16.6897 10.0303 16.6897C10.2177 16.6897 10.3976 16.6137 10.5308 16.4781Z" fill="url(#paint0_linear_4875_192)"/>
<defs>
<linearGradient id="paint0_linear_4875_192" x1="3.00006" y1="1.5" x2="20.3782" y2="12.2034" gradientUnits="userSpaceOnUse">
<stop stop-color="#45FFF4"/>
<stop offset="1" stop-color="#7000FF"/>
</linearGradient>
</defs>
</svg>
